# Blender 4.2.1 LTS
# www.blender.org
mtllib Mag.mtl
o Cube
v -0.237143 -1.458736 1.000000
v -0.237143 1.458736 1.000000
v -0.237143 -1.458736 -1.000000
v -0.237143 1.458736 -1.000000
v 0.237143 -1.458736 1.000000
v 0.237143 1.458736 1.000000
v 0.237143 -1.458736 -1.000000
v 0.237143 1.458736 -1.000000
v -0.237143 -1.458736 0.000000
v -0.237143 1.458736 0.000000
v 0.237143 -1.458736 0.000000
v 0.237143 1.458736 0.000000
v -0.314279 1.458736 -0.500000
v 0.314279 -1.458736 -0.500000
v -0.314279 -1.458736 -0.500000
v 0.314279 1.458736 -0.500000
v -0.314279 -1.458736 0.500000
v 0.314279 1.458736 0.500000
v -0.314279 1.458736 0.500000
v 0.314279 -1.458736 0.500000
v -0.328671 -1.526909 0.522896
v -0.248002 -1.526909 1.045791
v 0.248002 -1.526909 -1.045791
v -0.248002 -1.526909 -1.045791
v 0.328671 -1.526909 -0.522896
v 0.248002 -1.526909 1.045791
v -0.328671 -1.526909 -0.522896
v -0.248002 -1.526909 0.000000
v 0.328671 -1.526909 0.522896
v 0.248002 -1.526909 0.000000
v -0.328671 -1.597026 0.522896
v -0.248002 -1.597026 1.045791
v 0.248002 -1.597026 -1.045791
v -0.248002 -1.597026 -1.045791
v 0.328671 -1.597026 -0.522896
v 0.248002 -1.597026 1.045791
v -0.328671 -1.597026 -0.522896
v -0.248002 -1.597026 0.000000
v 0.328671 -1.597026 0.522896
v 0.248002 -1.597026 0.000000
v -0.315427 -1.649560 0.501826
v -0.238009 -1.649560 1.003651
v 0.238009 -1.649560 -1.003651
v -0.238009 -1.649560 -1.003651
v 0.315427 -1.649560 -0.501826
v 0.238009 -1.649560 1.003651
v -0.315427 -1.649560 -0.501826
v -0.238009 -1.649560 0.000000
v 0.315427 -1.649560 0.501826
v 0.238009 -1.649560 0.000000
v -0.296209 1.448897 -0.471252
v -0.223508 1.448897 -0.942503
v 0.223508 1.448897 -0.942503
v 0.296209 1.448897 0.471252
v 0.223508 1.448897 0.942503
v -0.223508 1.448897 0.942503
v -0.296209 1.448897 0.471252
v -0.223508 1.448897 0.000000
v 0.296209 1.448897 -0.471252
v 0.223508 1.448897 0.000000
v -0.296209 -1.238009 -0.471252
v -0.223508 -1.238009 -0.942503
v 0.223508 -1.238009 -0.942503
v 0.296209 -1.238009 0.471252
v 0.223508 -1.238009 0.942503
v -0.223508 -1.238009 0.942503
v -0.296209 -1.238009 0.471252
v -0.223508 -1.238009 0.000000
v 0.296209 -1.238009 -0.471252
v 0.223508 -1.238009 0.000000
vn -0.9883 -0.0000 -0.1525
vn -0.0000 -0.0000 -1.0000
vn 0.9883 -0.0000 0.1525
vn -0.0000 -0.0000 1.0000
vn 0.9565 0.2515 0.1476
vn 0.3998 0.9145 0.0617
vn -0.5828 0.8076 0.0899
vn 0.9565 0.2515 -0.1476
vn 0.9883 -0.0000 -0.1525
vn -0.9565 0.2515 0.1476
vn -0.0000 0.9857 0.1687
vn -0.9883 -0.0000 0.1525
vn -0.5828 0.8076 -0.0899
vn -0.0000 0.5576 0.8301
vn 0.9763 0.1555 -0.1506
vn 0.9763 0.1555 0.1506
vn -0.0000 0.5576 -0.8301
vn -0.9763 0.1555 -0.1506
vn -0.9565 0.2515 -0.1476
vn -0.9763 0.1555 0.1506
vn -0.9713 -0.1848 -0.1498
vn -0.0000 -0.6257 0.7801
vn 0.9439 -0.2964 -0.1456
vn 0.9713 -0.1848 -0.1498
vn -0.0000 -1.0000 -0.0000
vn -0.9439 -0.2964 0.1456
vn 0.9713 -0.1848 0.1498
vn -0.9713 -0.1848 0.1498
vn 0.9439 -0.2964 0.1456
vn -0.0000 -0.6257 -0.7801
vn -0.9439 -0.2964 -0.1456
vn -0.3998 0.9145 0.0617
vn 0.3998 0.9145 -0.0617
vn 0.5828 0.8076 0.0899
vn 0.5828 0.8076 -0.0899
vn -0.0000 0.9857 -0.1687
vn -0.3998 0.9145 -0.0617
vn -0.0000 1.0000 -0.0000
vt 0.375000 0.187500
vt 0.625000 0.187500
vt 0.625000 0.250000
vt 0.375000 0.250000
vt 0.625000 0.500000
vt 0.375000 0.500000
vt 0.375000 0.687500
vt 0.625000 0.687500
vt 0.625000 0.750000
vt 0.375000 0.750000
vt 0.625000 1.000000
vt 0.375000 1.000000
vt 0.625000 0.625000
vt 0.375000 0.562500
vt 0.625000 0.562500
vt 0.375000 0.625000
vt 0.375000 0.062500
vt 0.625000 0.062500
vt 0.625000 0.125000
vt 0.375000 0.125000
vt 0.375000 0.000000
vt 0.625000 0.000000
vt 0.125000 0.687500
vt 0.125000 0.750000
vt 0.125000 0.562500
vt 0.125000 0.625000
vt 0.125000 0.500000
vt 0.875000 0.687500
vt 0.875000 0.750000
vt 0.875000 0.562500
vt 0.875000 0.625000
vt 0.875000 0.500000
s 0
f 15/1/1 13/2/1 4/3/1 3/4/1
f 3/4/2 4/3/2 8/5/2 7/6/2
f 20/7/3 18/8/3 6/9/3 5/10/3
f 5/10/4 6/9/4 2/11/4 1/12/4
f 20/7/5 5/10/5 26/10/5 29/7/5
f 4/3/6 13/2/6 51/2/6 52/3/6
f 18/8/7 12/13/7 60/13/7 54/8/7
f 7/6/8 14/14/8 25/14/8 23/6/8
f 14/14/3 16/15/3 12/13/3 11/16/3
f 17/17/1 19/18/1 10/19/1 9/20/1
f 7/6/9 8/5/9 16/15/9 14/14/9
f 1/21/10 17/17/10 21/17/10 22/21/10
f 8/5/11 4/3/11 52/3/11 53/5/11
f 9/20/12 10/19/12 13/2/12 15/1/12
f 1/21/12 2/22/12 19/18/12 17/17/12
f 12/13/13 16/15/13 59/15/13 60/13/13
f 5/10/14 1/12/14 22/12/14 26/10/14
f 11/16/9 12/13/9 18/8/9 20/7/9
f 26/10/4 22/12/4 32/12/4 36/10/4
f 23/6/9 25/14/9 35/14/9 33/6/9
f 30/16/9 29/7/9 39/7/9 40/16/9
f 27/1/1 24/4/1 34/4/1 37/1/1
f 11/16/15 20/7/15 29/7/15 30/16/15
f 14/14/16 11/16/16 30/16/16 25/14/16
f 3/4/17 7/6/17 23/6/17 24/4/17
f 17/17/18 9/20/18 28/20/18 21/17/18
f 15/1/19 3/4/19 24/4/19 27/1/19
f 9/20/20 15/1/20 27/1/20 28/20/20
f 31/17/21 38/20/21 48/20/21 41/17/21
f 36/10/22 32/12/22 42/12/22 46/10/22
f 33/6/23 35/14/23 45/14/23 43/6/23
f 40/16/24 39/7/24 49/7/24 50/16/24
f 21/17/1 28/20/1 38/20/1 31/17/1
f 22/21/12 21/17/12 31/17/12 32/21/12
f 25/14/3 30/16/3 40/16/3 35/14/3
f 28/20/12 27/1/12 37/1/12 38/20/12
f 29/7/3 26/10/3 36/10/3 39/7/3
f 24/4/2 23/6/2 33/6/2 34/4/2
f 41/23/25 49/7/25 46/10/25 42/24/25
f 47/25/25 45/14/25 50/16/25 48/26/25
f 44/27/25 43/6/25 45/14/25 47/25/25
f 48/26/25 50/16/25 49/7/25 41/23/25
f 32/21/26 31/17/26 41/17/26 42/21/26
f 35/14/27 40/16/27 50/16/27 45/14/27
f 38/20/28 37/1/28 47/1/28 48/20/28
f 39/7/29 36/10/29 46/10/29 49/7/29
f 34/4/30 33/6/30 43/6/30 44/4/30
f 37/1/31 34/4/31 44/4/31 47/1/31
f 51/2/9 58/19/9 68/19/9 61/2/9
f 52/3/3 51/2/3 61/2/3 62/3/3
f 54/8/12 60/13/12 70/13/12 64/8/12
f 56/11/2 55/9/2 65/9/2 66/11/2
f 16/15/32 8/5/32 53/5/32 59/15/32
f 19/18/33 2/22/33 56/22/33 57/18/33
f 10/19/34 19/18/34 57/18/34 58/19/34
f 13/2/35 10/19/35 58/19/35 51/2/35
f 2/11/36 6/9/36 55/9/36 56/11/36
f 6/9/37 18/8/37 54/8/37 55/9/37
f 64/8/38 67/28/38 66/29/38 65/9/38
f 69/15/38 61/30/38 68/31/38 70/13/38
f 63/5/38 62/32/38 61/30/38 69/15/38
f 70/13/38 68/31/38 67/28/38 64/8/38
f 58/19/3 57/18/3 67/18/3 68/19/3
f 57/18/9 56/22/9 66/22/9 67/18/9
f 53/5/4 52/3/4 62/3/4 63/5/4
f 59/15/12 53/5/12 63/5/12 69/15/12
f 60/13/1 59/15/1 69/15/1 70/13/1
f 55/9/1 54/8/1 64/8/1 65/9/1
